<svg width="96" height="48" viewBox="0 0 96 48" fill="none" xmlns="http://www.w3.org/2000/svg">
<path d="M25.378 1.88273C24.5566 2.55502 23.4597 4.32167 22.1328 7.09676L16.2364 20.9292L10.388 7.05379C9.20011 4.36211 8.28519 2.68139 7.60026 2.04954C6.96083 1.41769 6.23041 1.08154 5.27 0.955172C4.35508 0.790891 2.70974 0.747925 0.333984 0.747925L3.03072 7.05379L10.115 23.8282L12.8118 30.177C15.645 30.177 17.7933 29.5881 19.2566 28.4103C20.3535 27.5687 21.3594 26.0573 22.3653 23.8711L29.4901 7.05379L32.1868 0.747925C30.084 0.747925 28.5777 0.747925 27.6628 0.917261C26.7934 1.04363 26.0174 1.37978 25.378 1.88526V1.88273Z" fill="#37266B"/>
<path d="M36.3469 2.59798C35.3865 3.60642 34.8836 5.12033 34.8836 7.05379V30.1795C37.2593 30.1795 38.9957 29.717 40.0471 28.8349C41.1894 27.8669 41.7379 26.2292 41.7379 23.8736V0.747925C39.2711 0.747925 37.4868 1.33681 36.3444 2.59798H36.3469Z" fill="#37266B"/>
<path d="M74.3616 29.4213C75.1956 29.0017 75.7971 28.3269 76.1687 27.4878C76.5402 26.6058 76.6792 25.428 76.6792 23.9571L65.8897 15.5054L76.6792 7.05379C76.6792 5.53988 76.4947 4.36211 76.1232 3.52301C75.7516 2.64095 75.1501 1.96866 74.3161 1.54658C73.2975 1.0411 71.7685 0.790891 69.7314 0.790891H51.2081C49.0775 0.790891 47.4094 1.21044 46.2518 2.13547C44.9098 3.1439 44.2602 4.82715 44.2602 7.09676H65.3312L44.2602 23.9141V23.9571C44.2602 26.1862 44.9072 27.824 46.2973 28.8754C47.4094 29.7574 49.0749 30.22 51.2055 30.22H69.7289C71.7659 30.22 73.3405 29.9268 74.3591 29.4213H74.3616ZM55.0977 23.9141L60.284 19.8778L65.3792 23.9141H55.0977Z" fill="#37266B"/>
<path d="M86.0685 23.8711V0.747925C83.6018 0.747925 81.8174 1.33681 80.675 2.59798C79.7146 3.60642 79.2117 5.12033 79.2117 7.05379V30.1795C81.5874 30.1795 83.3237 29.717 84.3751 28.8349C85.5175 27.8669 86.066 26.2292 86.066 23.8736L86.0685 23.8711Z" fill="#37266B"/>
<path d="M92.2379 30.1795C93.1983 30.1795 94.0197 29.8434 94.6591 29.2545C95.3441 28.6252 95.6651 27.8669 95.6651 27.0253C95.6651 26.1433 95.3441 25.385 94.6591 24.7962C94.0197 24.1668 93.1958 23.8711 92.2379 23.8711C91.28 23.8711 90.5016 24.1643 89.8166 24.7962C89.1772 25.385 88.8107 26.1407 88.8107 27.0253C88.8107 27.9099 89.1772 28.6226 89.8166 29.2545C90.5016 29.8434 91.3255 30.1795 92.2379 30.1795Z" fill="#37266B"/>
<path d="M50.124 36.7506C50.124 35.1524 51.4196 33.8567 53.0179 33.8567H95.6173V43.5543C95.6173 45.5964 93.9617 47.252 91.9195 47.252H50.124V36.7506Z" fill="#DDF140"/>
<path d="M72.1065 38.0588L75.1818 36.65V35.1204L72.1065 36.7171V38.0588Z" fill="#6639F4"/>
<path d="M57.7209 44.5956C57.1974 44.5956 56.7277 44.503 56.3119 44.3179C55.8962 44.125 55.5651 43.8666 55.3187 43.5426C55.0801 43.2186 54.9492 42.8599 54.9261 42.4665H56.5545C56.5853 42.7134 56.7046 42.9178 56.9125 43.0798C57.1281 43.2418 57.3937 43.3228 57.7094 43.3228C58.0173 43.3228 58.256 43.2611 58.4254 43.1376C58.6025 43.0142 58.691 42.8561 58.691 42.6632C58.691 42.455 58.5832 42.3007 58.3676 42.2004C58.1598 42.0924 57.8249 41.9767 57.3629 41.8533C56.8855 41.7375 56.4929 41.618 56.1849 41.4946C55.8846 41.3711 55.6229 41.1821 55.3996 40.9276C55.184 40.673 55.0762 40.3297 55.0762 39.8978C55.0762 39.5429 55.1763 39.2189 55.3765 38.9258C55.5844 38.6327 55.8769 38.4013 56.2542 38.2315C56.6392 38.0618 57.0896 37.977 57.6054 37.977C58.3676 37.977 58.9759 38.1698 59.4301 38.5555C59.8844 38.9335 60.1346 39.4465 60.1808 40.0945H58.6333C58.6102 39.8399 58.5024 39.6393 58.3099 39.4928C58.1251 39.3385 57.8749 39.2614 57.5592 39.2614C57.2667 39.2614 57.0395 39.3154 56.8778 39.4234C56.7239 39.5314 56.6469 39.6818 56.6469 39.8746C56.6469 40.0906 56.7547 40.2565 56.9702 40.3722C57.1858 40.4802 57.5207 40.592 57.975 40.7077C58.4369 40.8234 58.8181 40.943 59.1183 41.0664C59.4186 41.1899 59.6765 41.3827 59.8921 41.645C60.1154 41.8995 60.2309 42.239 60.2386 42.6632C60.2386 43.0335 60.1346 43.3652 59.9267 43.6583C59.7266 43.9515 59.434 44.1829 59.049 44.3526C58.6718 44.5146 58.2291 44.5956 57.7209 44.5956Z" fill="#6639F4"/>
<path d="M61.15 41.2631C61.15 40.6152 61.2771 40.0405 61.5311 39.5391C61.7929 39.0377 62.1432 38.652 62.5821 38.382C63.0286 38.112 63.5252 37.977 64.0719 37.977C64.5492 37.977 64.965 38.0734 65.3192 38.2663C65.681 38.4591 65.9697 38.7021 66.1853 38.9952V38.0811H67.8137V44.4914H66.1853V43.5542C65.9774 43.855 65.6887 44.1057 65.3192 44.3063C64.9573 44.4992 64.5377 44.5956 64.0603 44.5956C63.5214 44.5956 63.0286 44.4567 62.5821 44.179C62.1432 43.9013 61.7929 43.5118 61.5311 43.0104C61.2771 42.5012 61.15 41.9188 61.15 41.2631ZM66.1853 41.2863C66.1853 40.8929 66.1083 40.5573 65.9543 40.2796C65.8004 39.9942 65.5925 39.7782 65.3307 39.6316C65.0689 39.4774 64.7879 39.4002 64.4876 39.4002C64.1874 39.4002 63.9102 39.4735 63.6561 39.6201C63.402 39.7666 63.1942 39.9826 63.0325 40.268C62.8785 40.5457 62.8015 40.8774 62.8015 41.2631C62.8015 41.6488 62.8785 41.9883 63.0325 42.2814C63.1942 42.5668 63.402 42.7867 63.6561 42.9409C63.9179 43.0952 64.1951 43.1724 64.4876 43.1724C64.7879 43.1724 65.0689 43.0991 65.3307 42.9525C65.5925 42.7982 65.8004 42.5822 65.9543 42.3045C66.1083 42.0191 66.1853 41.6797 66.1853 41.2863Z" fill="#6639F4"/>
<path d="M75.4329 38.0811V44.4914H73.8045V43.6815C73.5966 43.9592 73.3233 44.179 72.9845 44.341C72.6535 44.4953 72.2916 44.5724 71.8989 44.5724C71.3985 44.5724 70.9558 44.4683 70.5708 44.26C70.1859 44.044 69.8817 43.7316 69.6585 43.3228C69.4429 42.9062 69.3351 42.4125 69.3351 41.8417V38.0811H70.9519V41.6103C70.9519 42.1194 71.079 42.5128 71.333 42.7905C71.5871 43.0605 71.9336 43.1955 72.3724 43.1955C72.819 43.1955 73.1693 43.0605 73.4234 42.7905C73.6775 42.5128 73.8045 42.1194 73.8045 41.6103V38.0811H75.4329Z" fill="#6639F4"/>
<path d="M76.6124 41.2631C76.6124 40.6152 76.7394 40.0405 76.9935 39.5391C77.2553 39.0377 77.6095 38.652 78.056 38.382C78.5026 38.112 78.9992 37.977 79.5458 37.977C79.9616 37.977 80.3581 38.0696 80.7354 38.2547C81.1126 38.4321 81.4129 38.6712 81.6362 38.9721V35.9289H83.2761V44.4914H81.6362V43.5426C81.436 43.8589 81.155 44.1135 80.7931 44.3063C80.4312 44.4992 80.0116 44.5956 79.5343 44.5956C78.9953 44.5956 78.5026 44.4567 78.056 44.179C77.6095 43.9013 77.2553 43.5118 76.9935 43.0104C76.7394 42.5012 76.6124 41.9188 76.6124 41.2631ZM81.6477 41.2863C81.6477 40.8929 81.5707 40.5573 81.4167 40.2796C81.2627 39.9942 81.0549 39.7782 80.7931 39.6316C80.5313 39.4774 80.2503 39.4002 79.95 39.4002C79.6498 39.4002 79.3726 39.4735 79.1185 39.6201C78.8644 39.7666 78.6566 39.9826 78.4949 40.268C78.3409 40.5457 78.2639 40.8774 78.2639 41.2631C78.2639 41.6488 78.3409 41.9883 78.4949 42.2814C78.6566 42.5668 78.8644 42.7867 79.1185 42.9409C79.3803 43.0952 79.6575 43.1724 79.95 43.1724C80.2503 43.1724 80.5313 43.0991 80.7931 42.9525C81.0549 42.7982 81.2627 42.5822 81.4167 42.3045C81.5707 42.0191 81.6477 41.6797 81.6477 41.2863Z" fill="#6639F4"/>
<path d="M90.8029 41.1474C90.8029 41.3788 90.7875 41.5871 90.7567 41.7723H86.0794C86.1179 42.2351 86.2796 42.5977 86.5645 42.8599C86.8493 43.1222 87.1996 43.2533 87.6154 43.2533C88.2159 43.2533 88.6433 42.9949 88.8973 42.4781H90.6412C90.4564 43.0952 90.1023 43.6043 89.5787 44.0055C89.0552 44.3989 88.4123 44.5956 87.6501 44.5956C87.0341 44.5956 86.4798 44.4606 85.987 44.1906C85.502 43.9129 85.1208 43.5233 84.8437 43.0219C84.5742 42.5205 84.4395 41.942 84.4395 41.2863C84.4395 40.6229 84.5742 40.0405 84.8437 39.5391C85.1132 39.0377 85.4904 38.652 85.9755 38.382C86.4605 38.112 87.0187 37.977 87.6501 37.977C88.2583 37.977 88.8011 38.1081 89.2784 38.3704C89.7635 38.6327 90.1369 39.0068 90.3987 39.4928C90.6682 39.971 90.8029 40.5226 90.8029 41.1474ZM89.1283 40.6846C89.1206 40.268 88.9705 39.9363 88.6779 39.6895C88.3853 39.4349 88.0273 39.3076 87.6039 39.3076C87.2035 39.3076 86.8647 39.4311 86.5876 39.6779C86.3181 39.9171 86.1526 40.2526 86.091 40.6846H89.1283Z" fill="#6639F4"/>
</svg>
